<svg width="338" height="120" viewBox="0 0 338 120" fill="none" xmlns="http://www.w3.org/2000/svg">
<path d="M115.788 100.178C115.788 100.869 116.012 101.518 116.459 102.125C116.906 102.732 117.665 103.036 118.732 103.036H124.142C125.209 103.036 125.968 102.77 126.415 102.235C126.862 101.699 127.086 101.088 127.086 100.397V99.9203C127.086 98.5629 127.879 97.8883 129.464 97.8883C131.05 97.8883 131.847 98.5671 131.847 99.9203V100.439C131.847 101.649 131.653 102.644 131.261 103.424C130.873 104.204 130.287 104.882 129.507 105.456C127.976 106.552 126.449 107.1 124.918 107.1H117.648C116.117 107.1 114.633 106.552 113.19 105.456C112.499 104.878 111.963 104.153 111.588 103.272C111.213 102.391 111.027 101.375 111.027 100.22V87.8884C111.027 85.5528 111.748 83.8201 113.19 82.6945C113.912 82.1759 114.654 81.7628 115.421 81.4635C116.185 81.1599 116.927 81.0082 117.652 81.0082H124.923C125.614 81.0082 126.377 81.1473 127.217 81.4171C128.052 81.6911 128.832 82.0579 129.553 82.5216C130.245 83.0107 130.801 83.6894 131.219 84.5537C131.636 85.4179 131.847 86.4424 131.847 87.627V91.8976C131.847 92.5595 131.653 93.1539 131.261 93.6725C130.873 94.191 130.156 94.4524 129.119 94.4524H119.769C118.732 94.4524 118.184 93.7737 118.125 92.4204C118.125 91.0629 118.673 90.3884 119.769 90.3884H127.128L127.086 87.9348C127.086 87.2139 126.862 86.5562 126.415 85.966C125.968 85.3757 125.209 85.0807 124.142 85.0807H118.732C117.665 85.0807 116.906 85.3757 116.459 85.966C116.012 86.5562 115.788 87.2139 115.788 87.9348V100.178ZM158.162 100.22C158.162 102.585 157.382 104.33 155.826 105.456C154.295 106.552 152.768 107.1 151.237 107.1H143.967C142.436 107.1 140.952 106.552 139.51 105.456C138.818 104.878 138.282 104.153 137.907 103.272C137.532 102.391 137.346 101.375 137.346 100.22V87.8884C137.346 85.5528 138.067 83.8201 139.51 82.6945C140.231 82.1759 140.973 81.7628 141.74 81.4635C142.504 81.1599 143.246 81.0082 143.971 81.0082H151.242C151.933 81.0082 152.697 81.1473 153.536 81.4171C154.371 81.6911 155.151 82.0579 155.872 82.5216C156.564 83.0107 157.12 83.6894 157.538 84.5537C157.955 85.4179 158.166 86.4424 158.166 87.627V89.7897C158.166 91.1725 157.373 91.8681 155.784 91.8681C154.198 91.8681 153.405 91.1767 153.405 89.7897V87.9305C153.405 87.2096 153.182 86.552 152.735 85.9618C152.288 85.3715 151.528 85.0764 150.461 85.0764H145.051C143.984 85.0764 143.225 85.3715 142.778 85.9618C142.331 86.552 142.107 87.2096 142.107 87.9305V100.178C142.107 100.869 142.331 101.518 142.778 102.125C143.225 102.732 143.984 103.036 145.051 103.036H150.461C151.528 103.036 152.288 102.732 152.735 102.125C153.182 101.518 153.405 100.869 153.405 100.178V98.1876C153.405 96.8302 154.198 96.1556 155.784 96.1556C157.369 96.1556 158.166 96.8344 158.166 98.1876V100.22H158.162ZM177.422 81.0503C178.172 81.0503 178.944 81.2105 179.737 81.5267C180.53 81.8429 181.301 82.2476 182.052 82.7366H182.01C182.761 83.2847 183.338 83.9972 183.743 84.8783C184.148 85.7594 184.35 86.7754 184.35 87.9305V100.22C184.35 102.585 183.57 104.33 182.014 105.456C180.483 106.552 178.957 107.1 177.426 107.1H170.497C169.746 107.1 168.983 106.969 168.203 106.712C167.423 106.451 166.659 106.033 165.909 105.456C164.349 104.36 163.573 102.614 163.573 100.22V87.9305C163.573 86.7754 163.775 85.7594 164.18 84.8783C164.585 83.9972 165.162 83.2847 165.913 82.7366H165.871C166.592 82.2476 167.355 81.8429 168.165 81.5267C168.97 81.2105 169.751 81.0503 170.501 81.0503H177.422ZM176.641 103.032C177.708 103.032 178.467 102.728 178.914 102.121C179.361 101.514 179.585 100.865 179.585 100.173V87.9727C179.585 87.2518 179.361 86.5941 178.914 86.0039C178.467 85.4137 177.708 85.1186 176.641 85.1186H171.273C170.206 85.1186 169.447 85.4137 169 86.0039C168.553 86.5941 168.329 87.2518 168.329 87.9727V100.173C168.329 100.865 168.553 101.514 169 102.121C169.447 102.728 170.206 103.032 171.273 103.032H176.641ZM203.867 91.9524C204.588 91.9524 205.36 92.1169 206.182 92.4499C207.005 92.783 207.777 93.1919 208.498 93.6809H208.456C209.206 94.229 209.784 94.9372 210.189 95.8015C210.594 96.6657 210.796 97.707 210.796 98.917V100.215C210.796 102.581 210.016 104.326 208.46 105.452C207.709 106.029 206.946 106.446 206.166 106.708C205.385 106.969 204.622 107.096 203.871 107.096H196.513C195.762 107.096 194.999 106.965 194.218 106.708C193.438 106.446 192.675 106.029 191.924 105.452C190.368 104.355 189.588 102.61 189.588 100.215V99.6969C189.588 98.4575 190.381 97.8504 191.971 97.8799C193.586 97.8799 194.396 98.487 194.396 99.6969V100.173C194.396 100.865 194.611 101.514 195.045 102.121C195.479 102.728 196.243 103.032 197.339 103.032H203.053C204.15 103.032 204.913 102.728 205.347 102.121C205.782 101.514 205.997 100.865 205.997 100.173V98.9634C205.997 98.5882 205.946 98.2298 205.845 97.8799C205.744 97.5342 205.579 97.2222 205.347 96.9482C205.116 96.6742 204.812 96.4507 204.437 96.2779C204.061 96.105 203.597 96.0165 203.053 96.0165H196.728C195.256 96.0165 193.712 95.498 192.097 94.4609C190.566 93.4786 189.803 91.7922 189.803 89.3977V87.9263C189.803 86.7712 190.006 85.7552 190.41 84.8741C190.815 83.993 191.393 83.2805 192.144 82.7324H192.101C192.823 82.2434 193.586 81.8387 194.396 81.5225C195.201 81.2063 195.981 81.0461 196.732 81.0461H203.656C204.407 81.0461 205.179 81.2063 205.972 81.5225C206.764 81.8387 207.536 82.2434 208.287 82.7324H208.245C208.995 83.2805 209.573 83.993 209.978 84.8741C210.383 85.7552 210.585 86.7712 210.585 87.9263V88.3142C210.585 88.9213 210.383 89.3597 209.978 89.6337C209.573 89.9078 208.983 90.0595 208.202 90.089C206.617 90.1186 205.82 89.5283 205.82 88.3142V87.9685C205.82 87.2476 205.596 86.5899 205.149 85.9997C204.702 85.4095 203.943 85.1144 202.876 85.1144H197.508C196.441 85.1144 195.682 85.4095 195.235 85.9997C194.788 86.5899 194.564 87.2476 194.564 87.9685V89.0056C194.564 89.756 194.788 90.4347 195.235 91.0376C195.682 91.6447 196.441 91.9482 197.508 91.9482H203.867V91.9524ZM217.805 113.158C216.793 113.158 216.261 112.479 216.202 111.126C216.202 109.769 216.738 109.094 217.805 109.094H219.711C220.719 109.094 221.385 108.79 221.702 108.183L222.309 106.581L222.524 105.89L214.085 83.778V83.8201C213.853 83.1287 213.904 82.5385 214.237 82.0453C214.57 81.5562 215.081 81.1937 215.772 80.9618C216.291 80.8184 216.708 80.7468 217.029 80.7468C217.864 80.7468 218.387 81.2358 218.589 82.2181L222.009 90.7425L224.911 97.8377L229.541 82.3024C229.803 81.2653 230.406 80.7426 231.359 80.7426C231.591 80.7426 231.966 80.8142 232.485 80.9576C233.176 81.1599 233.674 81.493 233.978 81.9525C234.281 82.4162 234.345 82.9643 234.172 83.5967C232.873 88.0106 231.553 92.4541 230.212 96.9229C228.871 101.396 227.551 105.822 226.252 110.207C226.108 110.523 225.885 110.848 225.581 111.181C225.278 111.514 224.881 111.83 224.392 112.134C223.903 112.437 223.296 112.682 222.574 112.867C221.853 113.053 221.014 113.15 220.065 113.15H217.805V113.158ZM251.909 91.9524C252.63 91.9524 253.402 92.1169 254.224 92.4499C255.046 92.783 255.818 93.1919 256.539 93.6809H256.497C257.248 94.229 257.825 94.9372 258.23 95.8015C258.635 96.6657 258.838 97.707 258.838 98.917V100.215C258.838 102.581 258.057 104.326 256.501 105.452C255.751 106.029 254.987 106.446 254.207 106.708C253.427 106.969 252.664 107.096 251.913 107.096H244.554C243.804 107.096 243.04 106.965 242.26 106.708C241.48 106.446 240.717 106.029 239.966 105.452C238.41 104.355 237.63 102.61 237.63 100.215V99.6969C237.63 98.4575 238.422 97.8504 240.012 97.8799C241.627 97.8799 242.437 98.487 242.437 99.6969V100.173C242.437 100.865 242.652 101.514 243.087 102.121C243.521 102.728 244.284 103.032 245.381 103.032H251.095C252.191 103.032 252.955 102.728 253.389 102.121C253.823 101.514 254.039 100.865 254.039 100.173V98.9634C254.039 98.5882 253.988 98.2298 253.887 97.8799C253.785 97.5342 253.621 97.2222 253.389 96.9482C253.157 96.6742 252.853 96.4507 252.478 96.2779C252.103 96.105 251.639 96.0165 251.095 96.0165H244.778C243.306 96.0165 241.762 95.498 240.147 94.4609C238.616 93.4786 237.853 91.7922 237.853 89.3977V87.9263C237.853 86.7712 238.056 85.7552 238.46 84.8741C238.865 83.993 239.443 83.2805 240.194 82.7324H240.151C240.873 82.2434 241.636 81.8387 242.446 81.5225C243.251 81.2063 244.031 81.0461 244.782 81.0461H251.706C252.457 81.0461 253.229 81.2063 254.022 81.5225C254.814 81.8387 255.586 82.2434 256.337 82.7324H256.295C257.045 83.2805 257.623 83.993 258.028 84.8741C258.433 85.7552 258.635 86.7712 258.635 87.9263V88.3142C258.635 88.9213 258.433 89.3597 258.028 89.6337C257.623 89.9078 257.033 90.0595 256.253 90.089C254.667 90.1186 253.87 89.5283 253.87 88.3142V87.9685C253.87 87.2476 253.646 86.5899 253.199 85.9997C252.752 85.4095 251.993 85.1144 250.926 85.1144H245.558C244.491 85.1144 243.732 85.4095 243.285 85.9997C242.838 86.5899 242.614 87.2476 242.614 87.9685V89.0056C242.614 89.756 242.838 90.4347 243.285 91.0376C243.732 91.6447 244.491 91.9482 245.558 91.9482H251.909V91.9524ZM270.131 85.1186V100.869C270.131 101.619 270.291 102.197 270.608 102.602C270.924 103.006 271.603 103.209 272.64 103.209H273.766C274.892 103.209 275.424 103.871 275.369 105.199C275.369 106.556 274.833 107.231 273.766 107.231H272.337C271.413 107.231 270.549 107.108 269.739 106.864C268.929 106.619 268.153 106.265 267.403 105.806V105.848C265.99 104.925 265.281 103.28 265.281 100.915V85.1228H263.595C262.557 85.1228 262.009 84.4441 261.95 83.0908C261.95 81.7333 262.498 81.0588 263.595 81.0588H265.281V76.4213C265.281 75.0386 266.104 74.3429 267.748 74.3429C269.334 74.3429 270.131 75.0343 270.131 76.4213V81.0503H273.724C274.85 81.0503 275.381 81.7291 275.327 83.0823C275.327 84.4398 274.791 85.1144 273.724 85.1144H270.131V85.1186ZM283.896 100.178C283.896 100.869 284.119 101.518 284.566 102.125C285.013 102.732 285.772 103.036 286.839 103.036H292.25C293.317 103.036 294.076 102.77 294.523 102.235C294.97 101.699 295.194 101.088 295.194 100.397V99.9203C295.194 98.5629 295.986 97.8883 297.572 97.8883C299.158 97.8883 299.955 98.5671 299.955 99.9203V100.439C299.955 101.649 299.761 102.644 299.368 103.424C298.981 104.204 298.394 104.882 297.614 105.456C296.083 106.552 294.557 107.1 293.026 107.1H285.756C284.225 107.1 282.74 106.552 281.298 105.456C280.606 104.878 280.071 104.153 279.696 103.272C279.32 102.391 279.135 101.375 279.135 100.22V87.8884C279.135 85.5528 279.856 83.8201 281.298 82.6945C282.019 82.1759 282.761 81.7628 283.529 81.4635C284.292 81.1599 285.034 81.0082 285.76 81.0082H293.03C293.722 81.0082 294.485 81.1473 295.324 81.4171C296.159 81.6911 296.939 82.0579 297.661 82.5216C298.352 83.0107 298.909 83.6894 299.326 84.5537C299.744 85.4179 299.955 86.4424 299.955 87.627V91.8976C299.955 92.5595 299.761 93.1539 299.368 93.6725C298.981 94.191 298.264 94.4524 297.226 94.4524H287.877C286.839 94.4524 286.291 93.7737 286.232 92.4204C286.232 91.0629 286.78 90.3884 287.877 90.3884H295.236L295.194 87.9348C295.194 87.2139 294.97 86.5562 294.523 85.966C294.076 85.3757 293.317 85.0807 292.25 85.0807H286.839C285.772 85.0807 285.013 85.3757 284.566 85.966C284.119 86.5562 283.896 87.2139 283.896 87.9348V100.178ZM318.869 88.2762C318.869 87.901 318.809 87.5343 318.696 87.1717C318.582 86.8091 318.434 86.4719 318.261 86.1557C317.886 85.4643 317.106 85.1186 315.925 85.1186H313.154C311.969 85.1186 311.176 85.4643 310.776 86.1557C310.43 86.8176 310.257 87.5258 310.257 88.2762V105.409C310.257 106.767 309.464 107.441 307.874 107.441C306.23 107.441 305.407 106.763 305.407 105.409V87.8884C305.407 85.5233 306.188 83.7906 307.744 82.6945C309.329 81.5984 310.873 81.0503 312.374 81.0503H316.747C317.409 81.0503 318.147 81.181 318.953 81.4382C319.758 81.6996 320.538 82.1001 321.289 82.6481C322.01 82.1001 322.769 81.6953 323.562 81.4382C324.355 81.1768 325.114 81.0503 325.835 81.0503H330.162C331.693 81.0503 333.219 81.5984 334.75 82.6945C336.336 83.7611 337.133 85.4938 337.133 87.8884V105.414C337.133 106.771 336.323 107.446 334.708 107.446C333.093 107.446 332.283 106.767 332.283 105.414V88.2805C332.283 87.9053 332.241 87.53 332.152 87.1548C332.064 86.7796 331.908 86.4339 331.676 86.1177L331.718 86.1599C331.486 85.7847 331.199 85.5191 330.854 85.3589C330.508 85.1987 330.002 85.1228 329.34 85.1228H326.611C325.401 85.1228 324.604 85.4685 324.233 86.1599C323.857 86.7965 323.672 87.5005 323.672 88.2805V105.414C323.672 106.771 322.879 107.446 321.289 107.446C319.674 107.446 318.864 106.767 318.864 105.414V88.2762H318.869ZM105.65 65.1145C105.65 67.4796 104.87 69.2207 103.314 70.3463C101.787 71.4425 100.257 71.9905 98.7299 71.9905H91.4638C89.9372 71.9905 88.4485 71.4425 87.0105 70.3463C86.3189 69.7688 85.7833 69.0436 85.4122 68.1625C85.0369 67.2856 84.8513 66.2696 84.8513 65.1145V52.7916C84.8513 50.4561 85.5725 48.7276 87.0147 47.602C87.7358 47.0834 88.4781 46.6745 89.2414 46.3709C90.0047 46.0674 90.7469 45.9156 91.468 45.9156H98.7341C99.4257 45.9156 100.189 46.0505 101.028 46.3246C101.863 46.5986 102.643 46.9654 103.365 47.4249C104.056 47.9139 104.613 48.5927 105.03 49.4569C105.448 50.3212 105.659 51.3456 105.659 52.526V54.6888C105.659 56.0716 104.866 56.763 103.28 56.763C101.695 56.763 100.902 56.0716 100.902 54.6888V52.8296C100.902 52.1087 100.678 51.4552 100.231 50.8608C99.7842 50.2706 99.0251 49.9755 97.9624 49.9755H92.556C91.4891 49.9755 90.7342 50.2706 90.2872 50.8608C89.8402 51.451 89.6167 52.1087 89.6167 52.8296V65.0639C89.6167 65.7553 89.8402 66.4045 90.2872 67.0074C90.7342 67.6145 91.4891 67.9138 92.556 67.9138H97.9624C99.0293 67.9138 99.7842 67.6103 100.231 67.0074C100.678 66.4003 100.902 65.7553 100.902 65.0639V63.074C100.902 61.7208 101.695 61.042 103.28 61.042C104.866 61.042 105.659 61.7208 105.659 63.074V65.1145H105.65ZM124.897 45.962C125.648 45.962 126.415 46.1222 127.212 46.4384C128.005 46.7546 128.777 47.1593 129.528 47.6483H129.485C130.236 48.1964 130.81 48.9089 131.214 49.79C131.619 50.6711 131.822 51.6871 131.822 52.838V65.1145C131.822 67.4796 131.042 69.2207 129.485 70.3463C127.959 71.4425 126.428 71.9905 124.901 71.9905H117.981C117.23 71.9905 116.467 71.8598 115.687 71.6027C114.907 71.3413 114.144 70.9239 113.397 70.3506C111.841 69.2544 111.061 67.5133 111.061 65.1187V52.8422C111.061 51.6913 111.263 50.6753 111.668 49.7942C112.073 48.9173 112.646 48.2006 113.397 47.6526H113.355C114.076 47.1635 114.839 46.7588 115.649 46.4426C116.455 46.1264 117.235 45.9662 117.985 45.9662H124.897V45.962ZM124.117 67.9265C125.184 67.9265 125.939 67.6229 126.386 67.0201C126.833 66.413 127.056 65.768 127.056 65.0766V52.8844C127.056 52.1635 126.833 51.51 126.386 50.9156C125.939 50.3254 125.18 50.0303 124.117 50.0303H118.753C117.686 50.0303 116.931 50.3254 116.484 50.9156C116.037 51.5058 115.814 52.1635 115.814 52.8844V65.0766C115.814 65.768 116.037 66.4172 116.484 67.0201C116.931 67.6271 117.686 67.9265 118.753 67.9265H124.117ZM142.019 70.1735C142.019 71.5563 141.226 72.2477 139.64 72.2477C138.055 72.2477 137.262 71.5563 137.262 70.1735V52.7916C137.262 51.6112 137.447 50.5868 137.823 49.7225C138.198 48.8583 138.788 48.15 139.594 47.602C141.121 46.5058 142.651 45.9578 144.178 45.9578H151.14C152.612 45.9578 154.139 46.5058 155.724 47.602C157.281 48.6981 158.061 50.4266 158.061 52.7916V70.1735C158.061 71.5563 157.268 72.2477 155.682 72.2477C154.097 72.2477 153.304 71.5563 153.304 70.1735V53.1837C153.304 52.4333 153.072 51.7124 152.612 51.021L152.654 51.0632C152.279 50.3718 151.516 50.0261 150.36 50.0261H144.954C143.773 50.0261 142.993 50.3718 142.618 51.0632C142.213 51.6702 142.01 52.3743 142.01 53.1837V70.1735H142.019ZM169.308 50.0261V65.7637C169.308 66.5142 169.464 67.0917 169.784 67.4922C170.101 67.8969 170.78 68.0993 171.817 68.0993H172.943C174.069 68.0993 174.6 68.7612 174.541 70.0892C174.541 71.4424 174.006 72.1212 172.943 72.1212H171.518C170.594 72.1212 169.73 71.9989 168.924 71.7544C168.119 71.5099 167.338 71.1558 166.588 70.6962V70.7384C165.175 69.8151 164.467 68.1752 164.467 65.8101V50.0303H162.78C161.742 50.0303 161.194 49.3515 161.135 47.9982C161.135 46.645 161.683 45.9662 162.78 45.9662H164.467V41.3415C164.467 39.9587 165.289 39.2673 166.934 39.2673C168.519 39.2673 169.312 39.9587 169.312 41.3415V45.9662H172.901C174.027 45.9662 174.558 46.645 174.499 47.9982C174.499 49.3515 173.964 50.0303 172.901 50.0303H169.308V50.0261ZM182.976 70.1735C182.976 71.5563 182.183 72.2477 180.597 72.2477C178.952 72.2477 178.13 71.5563 178.13 70.1735V52.2731C178.13 49.9122 178.834 48.2681 180.251 47.3448C181.664 46.4215 183.292 45.962 185.139 45.962H190.069C191.136 45.962 191.667 46.6408 191.667 47.994C191.726 49.3473 191.191 50.0261 190.069 50.0261H185.485C184.447 50.0261 183.768 50.2284 183.452 50.6331C183.136 51.0379 182.976 51.5986 182.976 52.3195V70.1735ZM209.185 45.962C209.936 45.962 210.703 46.1222 211.5 46.4384C212.293 46.7546 213.065 47.1593 213.815 47.6483H213.773C214.524 48.1964 215.097 48.9089 215.502 49.79C215.907 50.6711 216.11 51.6871 216.11 52.838V65.1145C216.11 67.4796 215.329 69.2207 213.773 70.3463C212.247 71.4425 210.716 71.9905 209.189 71.9905H202.269C201.518 71.9905 200.755 71.8598 199.975 71.6027C199.195 71.3413 198.431 70.9239 197.685 70.3506C196.129 69.2544 195.349 67.5133 195.349 65.1187V52.8422C195.349 51.6913 195.551 50.6753 195.956 49.7942C196.361 48.9173 196.934 48.2006 197.685 47.6526H197.643C198.364 47.1635 199.127 46.7588 199.937 46.4426C200.742 46.1264 201.523 45.9662 202.273 45.9662H209.185V45.962ZM208.405 67.9265C209.472 67.9265 210.227 67.6229 210.674 67.0201C211.121 66.413 211.344 65.768 211.344 65.0766V52.8844C211.344 52.1635 211.121 51.51 210.674 50.9156C210.227 50.3254 209.468 50.0303 208.405 50.0303H203.041C201.974 50.0303 201.219 50.3254 200.772 50.9156C200.325 51.5058 200.101 52.1635 200.101 52.8844V65.0766C200.101 65.768 200.325 66.4172 200.772 67.0201C201.219 67.6271 201.974 67.9265 203.041 67.9265H208.405ZM226.484 70.3042C226.484 71.6575 225.691 72.3362 224.105 72.3362C222.49 72.3362 221.685 71.6575 221.685 70.3042V39.3052C221.685 37.9519 222.49 37.2732 224.105 37.2732C225.691 37.2732 226.484 37.9519 226.484 39.3052V70.3042Z" fill="white"/>
<path d="M20.3925 16.7546L23.4752 19.8363C23.7915 20.1525 24.2975 20.1567 24.6265 19.8532C44.4681 1.55229 75.114 1.40052 95.1327 19.3979C95.4617 19.693 95.9635 19.6846 96.2756 19.3726L99.3541 16.295C99.6914 15.9578 99.6788 15.4055 99.3288 15.0851C76.9737 -5.18038 42.5788 -5.02861 20.4093 15.5488C20.0635 15.8735 20.0593 16.4215 20.3925 16.7546Z" fill="#40B28F"/>
<path d="M19.4099 95.1225C1.54611 75.2744 1.54189 44.971 19.4014 25.1187C19.6966 24.7899 19.6882 24.2882 19.3761 23.9762L16.2976 20.8987C15.9603 20.5614 15.4078 20.5741 15.0873 20.924C-5.03262 43.1077 -5.02841 77.142 15.0958 99.3215C15.4163 99.6714 15.9687 99.684 16.3061 99.3468L19.3846 96.2692C19.6967 95.9488 19.7051 95.4513 19.4099 95.1225Z" fill="white"/>
<path d="M98.9909 103.697L95.9124 100.62C95.6003 100.308 95.0985 100.299 94.7695 100.595C74.9152 118.453 44.6025 118.457 24.744 100.603C24.4151 100.308 23.9132 100.316 23.6012 100.628L20.5227 103.706C20.1853 104.043 20.1979 104.595 20.548 104.916C42.7385 125.03 76.7834 125.03 98.9698 104.907C99.3198 104.587 99.3282 104.03 98.9909 103.697Z" fill="#40B28F"/>
<path d="M55.0089 59.9983L27.8168 32.8147C27.3234 32.3214 26.5137 32.3214 26.0329 32.8273C11.6188 48.156 11.5049 72.0176 25.6703 87.4939C26.151 88.0167 26.9734 88.0209 27.4752 87.5192L55.0089 59.9983Z" fill="white"/>
<path d="M32.8844 94.6885C48.3655 108.71 72.1206 108.554 87.4077 94.2037C87.9222 93.7189 87.9222 92.8968 87.4204 92.3993L60.3801 65.3674L32.8549 92.8841C32.353 93.3858 32.3572 94.2121 32.8844 94.6885ZM87.8336 25.2792C72.3441 11.2826 48.5974 11.4555 33.323 25.8188C32.8211 26.291 32.8211 27.092 33.3103 27.5768L60.3759 54.634L87.8631 27.1552C88.3903 26.6324 88.3819 25.7724 87.8336 25.2792Z" fill="#40B28F"/>
<path d="M103.326 47.1972C102.605 46.7377 101.829 46.3709 100.994 46.0969C100.159 45.8229 99.3957 45.688 98.7041 45.688H91.4464C90.7253 45.688 89.9831 45.8397 89.2198 46.1433C88.4565 46.4468 87.7143 46.8558 86.9932 47.3743C85.5509 48.4957 84.834 50.2242 84.834 52.5598V64.8742C84.834 66.0251 85.0195 67.0411 85.3949 67.918C85.7702 68.7949 86.3015 69.5243 86.9932 70.0976C88.4354 71.1937 89.9156 71.7376 91.4464 71.7376H98.7041C100.231 71.7376 101.757 71.1895 103.284 70.0976C104.84 68.9762 105.616 67.2308 105.616 64.87V62.838C105.616 61.4847 104.823 60.8059 103.238 60.8059C101.652 60.8059 100.859 61.4847 100.859 62.838V64.8236C100.859 65.515 100.636 66.1642 100.189 66.7671C99.7416 67.37 98.9867 67.6735 97.9198 67.6735H92.5218C91.4549 67.6735 90.7 67.37 90.253 66.7671C89.806 66.16 89.5825 65.515 89.5825 64.8236V52.5977C89.5825 51.8768 89.806 51.2234 90.253 50.6331C90.7 50.0429 91.4549 49.7478 92.5218 49.7478H97.924C98.9909 49.7478 99.7458 50.0429 100.193 50.6331C100.64 51.2234 100.863 51.8768 100.863 52.5977V54.4569C100.863 55.8397 101.656 56.5311 103.242 56.5311C104.827 56.5311 105.62 55.8397 105.62 54.4569V52.2984C105.62 51.118 105.409 50.0935 104.992 49.2293C104.57 48.3608 104.018 47.6863 103.326 47.1972ZM129.426 47.4122H129.468C128.717 46.9232 127.95 46.5185 127.157 46.2023C126.364 45.8861 125.593 45.7259 124.846 45.7259H117.93C117.179 45.7259 116.403 45.8861 115.598 46.2023C114.793 46.5185 114.029 46.9232 113.308 47.4122H113.35C112.6 47.9603 112.026 48.6728 111.621 49.5497C111.216 50.4266 111.018 51.4426 111.018 52.5935V64.8615C111.018 67.2519 111.794 68.9931 113.35 70.0892C114.101 70.6667 114.864 71.0841 115.64 71.3413C116.416 71.5984 117.179 71.7291 117.93 71.7291H124.846C126.373 71.7291 127.899 71.1811 129.426 70.0892C130.982 68.9678 131.758 67.2224 131.758 64.8615V52.5935C131.758 51.4426 131.556 50.4266 131.151 49.5497C130.75 48.6728 130.172 47.9603 129.426 47.4122ZM127.005 64.8236C127.005 65.515 126.782 66.1642 126.335 66.7671C125.888 67.37 125.133 67.6735 124.066 67.6735H118.706C117.639 67.6735 116.884 67.37 116.437 66.7671C115.99 66.16 115.767 65.515 115.767 64.8236V52.6399C115.767 51.919 115.99 51.2655 116.437 50.6753C116.884 50.0851 117.639 49.79 118.706 49.79H124.066C125.133 49.79 125.888 50.0851 126.335 50.6753C126.782 51.2655 127.005 51.9232 127.005 52.6399V64.8236ZM155.657 47.3701C154.071 46.274 152.544 45.7301 151.077 45.7301H144.118C142.592 45.7301 141.065 46.2782 139.539 47.3701C138.733 47.9181 138.143 48.6222 137.767 49.4864C137.392 50.3507 137.207 51.3751 137.207 52.5556V69.9205C137.207 71.3033 137.999 71.9947 139.585 71.9947C141.171 71.9947 141.963 71.3033 141.963 69.9205V52.9434C141.963 52.1382 142.166 51.4299 142.567 50.8271C142.942 50.1357 143.718 49.79 144.899 49.79H150.301C151.452 49.79 152.215 50.1357 152.591 50.8271L152.549 50.7849C153.008 51.4763 153.24 52.1972 153.24 52.9434V69.9205C153.24 71.3033 154.033 71.9947 155.619 71.9947C157.204 71.9947 157.997 71.3033 157.997 69.9205V52.5556C157.989 50.1905 157.213 48.462 155.657 47.3701ZM172.854 67.8464H171.732C170.695 67.8464 170.016 67.644 169.7 67.2435C169.383 66.8388 169.223 66.2654 169.223 65.515V49.79H172.812C173.879 49.79 174.41 49.1154 174.41 47.7579C174.469 46.4047 173.934 45.7259 172.812 45.7259H169.223V41.1012C169.223 39.7184 168.43 39.027 166.845 39.027C165.204 39.027 164.382 39.7184 164.382 41.1012V45.7259H162.695C161.598 45.7259 161.054 46.4004 161.054 47.7579C161.113 49.1112 161.658 49.79 162.695 49.79H164.382V65.5572C164.382 67.918 165.086 69.5622 166.499 70.4812V70.4391C167.249 70.8986 168.025 71.2527 168.831 71.4973C169.636 71.7418 170.501 71.864 171.424 71.864H172.85C173.917 71.864 174.448 71.1895 174.448 69.832C174.511 68.5082 173.98 67.8464 172.854 67.8464ZM189.967 45.7259H185.042C183.199 45.7259 181.571 46.1854 180.158 47.1087C178.745 48.032 178.041 49.6719 178.041 52.0328V69.9163C178.041 71.2991 178.863 71.9905 180.504 71.9905C182.09 71.9905 182.882 71.2991 182.882 69.9163V52.075C182.882 51.354 183.038 50.7933 183.359 50.3886C183.675 49.9839 184.354 49.7858 185.392 49.7858H189.971C191.093 49.7858 191.629 49.1112 191.57 47.7537C191.565 46.4047 191.034 45.7259 189.967 45.7259ZM213.651 47.4122H213.693C212.942 46.9232 212.175 46.5185 211.382 46.2023C210.589 45.8861 209.817 45.7259 209.071 45.7259H202.155C201.404 45.7259 200.628 45.8861 199.823 46.2023C199.017 46.5185 198.254 46.9232 197.533 47.4122H197.575C196.824 47.9603 196.251 48.6728 195.846 49.5497C195.441 50.4266 195.243 51.4426 195.243 52.5935V64.8615C195.243 67.2519 196.019 68.9931 197.575 70.0892C198.325 70.6667 199.089 71.0841 199.865 71.3413C200.641 71.5984 201.404 71.7291 202.155 71.7291H209.071C210.597 71.7291 212.124 71.1811 213.651 70.0892C215.207 68.9678 215.983 67.2224 215.983 64.8615V52.5935C215.983 51.4426 215.78 50.4266 215.38 49.5497C214.975 48.6728 214.397 47.9603 213.651 47.4122ZM211.23 64.8236C211.23 65.515 211.006 66.1642 210.559 66.7671C210.112 67.37 209.357 67.6735 208.291 67.6735H202.931C201.864 67.6735 201.109 67.37 200.662 66.7671C200.215 66.16 199.991 65.515 199.991 64.8236V52.6399C199.991 51.919 200.215 51.2655 200.662 50.6753C201.109 50.0851 201.864 49.79 202.931 49.79H208.291C209.357 49.79 210.112 50.0851 210.559 50.6753C211.006 51.2655 211.23 51.9232 211.23 52.6399V64.8236ZM223.978 37.0455C222.363 37.0455 221.558 37.7243 221.558 39.0776V70.0512C221.558 71.4045 222.363 72.0833 223.978 72.0833C225.564 72.0833 226.357 71.4087 226.357 70.0512V39.0776C226.353 37.7201 225.56 37.0455 223.978 37.0455Z" fill="white"/>
</svg>
