<svg width="181" height="120" viewBox="0 0 181 120" fill="none" xmlns="http://www.w3.org/2000/svg">
<path d="M21.0208 16.0843C20.6892 16.3902 20.6849 16.917 21.0104 17.2411L23.9987 20.2165C24.3047 20.5211 24.7928 20.5287 25.1075 20.2395C44.2944 2.63507 74.1628 2.80323 93.5507 20.6248C93.7025 20.7664 93.9029 20.8443 94.1098 20.8423C94.3166 20.8404 94.5136 20.7585 94.6594 20.6142L97.6141 17.6723C97.9336 17.3543 97.9232 16.8275 97.5882 16.5177C75.941 -3.51021 42.4443 -3.69875 21.0208 16.0843Z" fill="#41B490"/>
<path d="M16.1541 22.3445C16.4614 22.0143 16.9904 22.01 17.3159 22.3341L20.3042 25.3094C20.6102 25.6143 20.6178 26.1002 20.3273 26.4135C2.64671 45.5177 2.81559 75.2574 20.7143 94.5617C20.8565 94.7129 20.9347 94.9124 20.9328 95.1183C20.9308 95.3243 20.8486 95.5204 20.7037 95.6656L17.749 98.6075C17.4295 98.9256 16.9004 98.9154 16.5894 98.5818C-3.52763 77.0304 -3.71454 43.6756 16.1541 22.3445Z" fill="#2A3176"/>
<path d="M99.398 103.864C99.7296 103.558 99.7339 103.031 99.4084 102.708L96.4201 99.732C96.114 99.4272 95.626 99.4196 95.3113 99.7089C76.1244 117.313 46.256 117.146 26.8681 99.3236C26.7163 99.1821 26.5157 99.104 26.3089 99.106C26.1022 99.1079 25.9052 99.1898 25.7593 99.3341L22.8047 102.275C22.4852 102.594 22.4955 103.12 22.8306 103.431C44.4753 123.461 77.9745 123.647 99.398 103.864Z" fill="#41B490"/>
<path d="M55.8361 60.4354L33.6823 38.3771C33.2814 37.9779 32.6219 37.9718 32.2401 38.381C20.635 50.686 20.6524 69.9378 32.1983 82.4909C32.5895 82.9141 33.2563 82.9226 33.66 82.5209L55.8385 60.4379L55.8361 60.4354Z" fill="#2A3176"/>
<path d="M38.067 87.896C50.6714 99.2789 69.917 99.2646 82.2344 87.755C82.6502 87.3653 82.6439 86.7038 82.2358 86.2974L60.2058 64.3624L38.0345 86.4382C37.6286 86.8424 37.6373 87.5111 38.067 87.896ZM82.2641 32.1429C69.6502 20.7792 50.4143 20.8128 38.109 32.3297C37.7053 32.7074 37.7089 33.3521 38.1074 33.7489L60.1568 55.7031L82.2993 33.656C82.7196 33.2376 82.7109 32.5448 82.2641 32.1429Z" fill="#41B490"/>
<path d="M101.346 46.3636H110.257C119.8 46.3636 124.573 50.9748 124.573 60.1971C124.573 69.623 119.8 74.3359 110.257 74.3359H101.346V46.3636ZM105.065 71.0158H110.181C114.257 71.0158 117.035 70.0746 118.516 68.192C119.999 66.2966 120.74 63.6317 120.74 60.1971C120.74 56.8516 119.999 54.263 118.516 52.4313C117.048 50.5995 114.269 49.6836 110.181 49.6836H105.065V71.0158ZM158.069 46.3636H168.552C170.852 46.3636 172.775 46.5798 174.32 47.0123C175.879 47.4322 177.113 48.3544 178.019 49.779C178.926 51.191 179.38 52.7748 179.38 54.5301C179.38 57.3541 178.479 59.4975 176.677 60.9604C174.877 62.4232 172.271 63.1547 168.859 63.1547H161.788V74.3359H158.069V46.3636ZM161.788 59.8346H168.898C171.287 59.8346 172.986 59.3893 173.995 58.4989C175.017 57.6085 175.528 56.3237 175.528 54.6446C175.528 53.5252 175.247 52.533 174.684 51.668C174.122 50.8031 173.407 50.256 172.538 50.0271C171.682 49.7981 170.443 49.6836 168.821 49.6836H161.788V59.8346Z" fill="#41B490"/>
<path d="M142.777 73.9098C138.804 73.9098 135.629 72.6123 133.253 70.0173C130.89 67.4096 129.708 63.8861 129.708 59.4467C129.708 55.0072 130.89 51.4899 133.253 48.8949C135.629 46.2872 138.804 44.9834 142.777 44.9834C145.831 44.9834 148.431 45.8039 150.577 47.4449C152.723 49.0858 153.93 51.2482 154.199 53.9322H150.366C150.213 52.1641 149.44 50.7585 148.047 49.7154C146.667 48.6724 144.923 48.1509 142.815 48.1509C139.967 48.1509 137.712 49.1304 136.051 51.0892C134.39 53.0355 133.56 55.8213 133.56 59.4467C133.56 63.0592 134.384 65.8451 136.031 67.804C137.68 69.763 139.916 70.7424 142.739 70.7424C144.937 70.7424 146.713 70.2082 148.067 69.1397C149.421 68.0711 150.187 66.5447 150.366 64.5603H154.199C153.93 67.5369 152.755 69.8393 150.673 71.4675C148.59 73.0958 145.958 73.9098 142.777 73.9098Z" fill="#2A3176"/>
</svg>
