<svg width="362" height="137" viewBox="0 0 362 137" fill="none" xmlns="http://www.w3.org/2000/svg">
<g clip-path="url(#clip0_1989_1045)">
<path d="M226.547 104.113C223.711 104.113 221.453 102.947 219.771 100.618L219.524 103.655H217.54V74.6136L219.886 74.4033V81.4489C219.886 83.5995 219.867 85.0821 219.827 85.8966C220.604 84.6988 221.594 83.8098 222.793 83.2242C223.996 82.6386 225.246 82.3458 226.544 82.3458C229.369 82.3458 231.572 83.3546 233.157 85.3722C234.74 87.3898 235.533 89.9903 235.533 93.171C235.533 95.3083 235.206 97.1902 234.551 98.8138C233.897 100.437 232.881 101.726 231.508 102.681C230.133 103.634 228.481 104.113 226.547 104.113ZM226.661 102.221C227.832 102.221 228.845 101.971 229.704 101.468C230.564 100.964 231.223 100.278 231.689 99.4047C232.154 98.5317 232.49 97.5921 232.7 96.578C232.91 95.5639 233.014 94.4673 233.014 93.2855C233.014 92.3432 232.952 91.4569 232.833 90.6211C232.713 89.788 232.495 88.9735 232.184 88.1776C231.872 87.3818 231.484 86.7031 231.019 86.1441C230.553 85.5851 229.949 85.1327 229.207 84.7893C228.462 84.4459 227.614 84.2729 226.659 84.2729C224.459 84.2729 222.775 85.0661 221.612 86.6498C220.45 88.2335 219.873 90.4853 219.886 93.3999C219.886 94.7361 220.011 95.9285 220.258 96.9799C220.506 98.0313 220.894 98.9522 221.423 99.7481C221.95 100.544 222.655 101.153 223.533 101.582C224.408 102.008 225.451 102.221 226.661 102.221ZM247.974 104.169C246.881 104.169 245.865 104.044 244.931 103.797C243.995 103.549 243.128 103.16 242.327 102.631C241.526 102.101 240.893 101.356 240.427 100.387C239.962 99.4207 239.731 98.2815 239.731 96.9693V82.7265H242.098V97.0278C242.098 98.0206 242.25 98.8617 242.556 99.5484C242.861 100.235 243.3 100.754 243.872 101.106C244.444 101.457 245.056 101.702 245.705 101.84C246.354 101.981 247.11 102.05 247.977 102.05C248.828 102.05 249.581 101.979 250.227 101.832C250.874 101.686 251.48 101.436 252.039 101.079C252.598 100.722 253.029 100.203 253.326 99.5218C253.624 98.8404 253.776 98.01 253.776 97.0305V82.7291H256.144V96.9719C256.144 98.0419 255.992 98.9948 255.686 99.8359C255.38 100.677 254.973 101.364 254.465 101.899C253.957 102.434 253.342 102.876 252.624 103.227C251.906 103.578 251.166 103.823 250.411 103.962C249.653 104.1 248.841 104.169 247.974 104.169ZM267.401 104.132C266.053 104.132 264.786 103.967 263.603 103.634C262.419 103.304 261.485 102.908 260.799 102.45L261.142 100.464C263.241 101.558 265.252 102.106 267.173 102.106C270.62 102.106 272.408 100.826 272.535 98.2682C272.535 97.1982 272.19 96.3597 271.495 95.7475C270.801 95.1353 269.412 94.4992 267.327 93.8391L265.515 93.2083C262.246 92.2154 260.599 90.4534 260.573 87.9195C260.573 86.4555 261.219 85.1593 262.509 84.0334C263.799 82.9075 265.547 82.3432 267.747 82.3432C269.947 82.3432 272.014 82.777 273.948 83.6421L273.147 85.3988C271.189 84.6615 269.37 84.2916 267.689 84.2916C266.212 84.2916 265.052 84.6216 264.206 85.2844C263.361 85.9471 262.938 86.8361 262.938 87.9567C262.938 88.899 263.214 89.6203 263.768 90.1233C264.321 90.6264 265.417 91.1055 267.058 91.566C267.236 91.6166 267.564 91.731 268.04 91.9094C268.516 92.0877 268.782 92.1835 268.832 92.1968C271.032 92.8702 272.57 93.6714 273.44 94.5923C274.31 95.5133 274.746 96.7723 274.746 98.364C274.709 100.198 274.025 101.617 272.695 102.623C271.368 103.629 269.601 104.132 267.401 104.132ZM279.556 78.4518V75.2444H281.923V78.4518H279.556ZM279.556 103.653V82.7265H281.942V103.653H279.556ZM287.799 103.653V82.7265H289.861L290.185 85.9525C290.936 84.8319 291.944 83.9509 293.21 83.3067C294.476 82.6626 295.841 82.3432 297.304 82.3432C299.709 82.3432 301.478 83.0059 302.608 84.3288C303.739 85.6517 304.305 87.7651 304.305 90.669V103.653H301.919V89.599C301.855 87.7411 301.462 86.4049 300.736 85.5905C300.009 84.776 298.82 84.3687 297.168 84.3687C295.272 84.3687 293.723 84.8452 292.521 85.8007C291.319 86.7563 290.566 87.9913 290.26 89.5058C290.209 90.1047 290.183 90.7276 290.183 91.377V103.655H287.799V103.653ZM318.255 104.113C315.366 104.113 313.073 103.147 311.376 101.212C309.679 99.277 308.828 96.6552 308.828 93.3467C308.828 90.1526 309.658 87.5362 311.318 85.5C312.978 83.4638 315.124 82.4124 317.758 82.3485C320.213 82.3485 322.184 83.2269 323.674 84.9836C325.164 86.7403 325.906 89.0959 325.906 92.0478C325.906 92.1622 325.903 92.3938 325.895 92.7451C325.887 93.0965 325.885 93.3413 325.885 93.4798H311.326C311.352 96.1654 311.999 98.2948 313.273 99.8678C314.544 101.441 316.223 102.226 318.311 102.226C319.673 102.226 320.854 102.066 321.86 101.75C322.865 101.43 323.913 100.98 325.009 100.395L325.411 102.17C323.299 103.464 320.915 104.113 318.255 104.113ZM311.424 91.5687H323.331C323.331 89.2397 322.828 87.4537 321.823 86.2133C320.817 84.9729 319.436 84.3528 317.681 84.3528C315.898 84.3528 314.462 85.0155 313.369 86.3384C312.278 87.6613 311.629 89.4047 311.424 91.5687ZM336.746 104.132C335.397 104.132 334.131 103.967 332.947 103.634C331.763 103.304 330.83 102.908 330.143 102.45L330.487 100.464C332.585 101.558 334.597 102.106 336.517 102.106C339.965 102.106 341.752 100.826 341.88 98.2682C341.88 97.1982 341.534 96.3597 340.84 95.7475C340.146 95.1353 338.757 94.4992 336.671 93.8391L334.86 93.2083C331.591 92.2154 329.944 90.4534 329.917 87.9195C329.917 86.4555 330.564 85.1593 331.854 84.0334C333.144 82.9075 334.892 82.3432 337.092 82.3432C339.292 82.3432 341.359 82.777 343.293 83.6421L342.492 85.3988C340.534 84.6615 338.714 84.2916 337.033 84.2916C335.557 84.2916 334.397 84.6216 333.551 85.2844C332.705 85.9471 332.282 86.8361 332.282 87.9567C332.282 88.899 332.559 89.6203 333.112 90.1233C333.666 90.6264 334.761 91.1055 336.403 91.566C336.581 91.6166 336.908 91.731 337.384 91.9094C337.861 92.0877 338.127 92.1835 338.177 92.1968C340.377 92.8702 341.915 93.6714 342.784 94.5923C343.654 95.5133 344.091 96.7723 344.091 98.364C344.053 100.198 343.37 101.617 342.04 102.623C340.712 103.629 338.949 104.132 336.746 104.132ZM354.76 104.132C353.412 104.132 352.145 103.967 350.962 103.634C349.778 103.304 348.844 102.908 348.155 102.45L348.498 100.464C350.597 101.558 352.608 102.106 354.529 102.106C357.977 102.106 359.764 100.826 359.892 98.2682C359.892 97.1982 359.546 96.3597 358.852 95.7475C358.157 95.1353 356.769 94.4992 354.683 93.8391L352.872 93.2083C349.602 92.2154 347.956 90.4534 347.929 87.9195C347.929 86.4555 348.576 85.1593 349.866 84.0334C351.156 82.9075 352.904 82.3432 355.104 82.3432C357.304 82.3432 359.37 82.777 361.304 83.6421L360.504 85.3988C358.546 84.6615 356.726 84.2916 355.045 84.2916C353.569 84.2916 352.409 84.6216 351.563 85.2844C350.717 85.9471 350.294 86.8361 350.294 87.9567C350.294 88.899 350.571 89.6203 351.124 90.1233C351.677 90.6264 352.773 91.1055 354.415 91.566C354.593 91.6166 354.92 91.731 355.396 91.9094C355.872 92.0877 356.138 92.1835 356.189 92.1968C358.389 92.8702 359.926 93.6714 360.796 94.5923C361.666 95.5133 362.102 96.7723 362.102 98.364C362.065 100.198 361.382 101.617 360.051 102.623C358.727 103.629 356.96 104.132 354.76 104.132ZM63.363 103.637C60.0246 103.637 57.4256 102.676 55.5662 100.754C53.7067 98.8324 52.7783 96.1761 52.7783 92.7824C52.7783 89.4792 53.6535 86.8521 55.4065 84.8958C57.1569 82.9421 59.5457 81.9572 62.5703 81.9466C65.43 81.9466 67.6512 82.8409 69.2313 84.6323C70.8114 86.4236 71.6042 88.7978 71.6042 91.7603C71.6042 91.9759 71.6015 92.3219 71.5935 92.801C71.5855 93.2801 71.5829 93.6341 71.5829 93.8604H57.7688C57.8193 95.8008 58.3513 97.3046 59.3648 98.3693C60.3784 99.434 61.7749 99.9663 63.5519 99.9663C65.821 99.9663 67.9997 99.3728 70.0905 98.1883L70.7902 101.704C68.7126 102.995 66.236 103.637 63.363 103.637ZM57.8645 90.7409H66.9356C66.9356 89.0507 66.5525 87.7518 65.7838 86.8441C65.015 85.9365 63.9509 85.4813 62.5889 85.4813C61.3174 85.4813 60.2427 85.9232 59.3675 86.8042C58.4923 87.6852 57.9895 89.0001 57.8645 90.7409ZM82.9044 103.525C81.4813 103.525 80.3002 103.357 79.3611 103.025C78.4221 102.692 77.6826 102.157 77.1399 101.428C76.5972 100.698 76.2195 99.8253 76.0067 98.8191C75.7939 97.813 75.6848 96.5567 75.6848 95.0555V74.8026L80.6353 74.4805V94.9597C80.6353 96.8255 80.8561 98.0898 81.2977 98.7499C81.7393 99.41 82.5959 99.7427 83.8674 99.7427C84.4979 99.7427 85.2986 99.6735 86.2669 99.5351L86.3999 103.073C86.3866 103.073 86.2323 103.104 85.937 103.168C85.6417 103.232 85.3571 103.285 85.0858 103.328C84.8144 103.371 84.4713 103.416 84.0563 103.461C83.6413 103.506 83.2582 103.525 82.9044 103.525ZM98.3439 103.637C95.0054 103.637 92.4065 102.676 90.547 100.754C88.6876 98.8324 87.7592 96.1761 87.7592 92.7824C87.7592 89.4792 88.6344 86.8521 90.3874 84.8958C92.1405 82.9394 94.5266 81.9572 97.5512 81.9466C100.411 81.9466 102.632 82.8409 104.212 84.6323C105.792 86.4236 106.585 88.7978 106.585 91.7603C106.585 91.9759 106.582 92.3219 106.574 92.801C106.566 93.2801 106.564 93.6341 106.564 93.8604H92.7496C92.8002 95.8008 93.3322 97.3046 94.3457 98.3693C95.3592 99.434 96.7558 99.9663 98.5328 99.9663C100.802 99.9663 102.981 99.3728 105.071 98.1883L105.771 101.704C103.693 102.995 101.217 103.637 98.3439 103.637ZM92.8454 90.7409H101.916C101.916 89.0507 101.533 87.7518 100.765 86.8441C99.9959 85.9365 98.9318 85.4813 97.5698 85.4813C96.2983 85.4813 95.2236 85.9232 94.3484 86.8042C93.4732 87.6852 92.9704 89.0001 92.8454 90.7409ZM110.61 103.24V82.4576H114.616L115.183 85.106C115.435 84.792 115.677 84.5098 115.912 84.2649C116.146 84.0201 116.465 83.7406 116.874 83.4318C117.284 83.1231 117.718 82.8675 118.178 82.6652C118.638 82.463 119.205 82.2926 119.878 82.1542C120.551 82.0158 121.274 81.9466 122.04 81.9466C123.69 81.9466 125.012 82.282 125.999 82.9501C126.988 83.6181 127.683 84.4007 128.087 85.295C128.829 84.2223 129.795 83.3972 130.979 82.817C132.162 82.2367 133.479 81.9466 134.929 81.9466C137.31 81.9466 139.057 82.62 140.175 83.9695C141.292 85.319 141.848 87.3152 141.848 89.9636V103.238H136.879V91.4382C136.879 89.4074 136.655 87.9434 136.208 87.0411C135.761 86.1388 134.908 85.6889 133.647 85.6889C131.718 85.6889 130.332 86.5593 129.489 88.2974C129.135 89.0666 128.896 89.9929 128.771 91.0762V103.235H123.82V91.2093C123.82 89.3568 123.575 87.9754 123.083 87.0677C122.591 86.1601 121.703 85.7049 120.418 85.7049C119.372 85.7049 118.471 85.9684 117.715 86.4981C116.96 87.0278 116.385 87.7198 115.994 88.5769C115.704 89.8492 115.56 91.3744 115.56 93.1524V103.232H110.61V103.24ZM156.327 103.637C152.989 103.637 150.39 102.676 148.53 100.754C146.671 98.8324 145.742 96.1761 145.742 92.7824C145.742 89.4792 146.618 86.8521 148.371 84.8958C150.124 82.9394 152.51 81.9572 155.534 81.9466C158.394 81.9466 160.615 82.8409 162.195 84.6323C163.775 86.4236 164.568 88.7978 164.568 91.7603C164.568 91.9759 164.566 92.3219 164.558 92.801C164.55 93.2801 164.547 93.6341 164.547 93.8604H150.733C150.783 95.8008 151.315 97.3046 152.329 98.3693C153.342 99.434 154.739 99.9663 156.516 99.9663C158.785 99.9663 160.964 99.3728 163.055 98.1883L163.754 101.704C161.677 102.995 159.2 103.637 156.327 103.637ZM150.829 90.7409H159.9C159.9 89.0507 159.517 87.7518 158.748 86.8441C157.979 85.9365 156.915 85.4813 155.553 85.4813C154.281 85.4813 153.207 85.9232 152.332 86.8042C151.456 87.6852 150.954 89.0001 150.829 90.7409ZM168.593 103.24V82.4576H172.581L173.129 85.0874C175.246 82.9953 177.595 81.9492 180.178 81.9492C182.596 81.9492 184.408 82.6466 185.613 84.0387C186.818 85.4308 187.416 87.451 187.416 90.0994V103.243H182.447V90.7063C182.434 89.0294 182.162 87.7757 181.636 86.9426C181.109 86.1095 180.154 85.6943 178.781 85.6943C177.709 85.6943 176.73 85.9684 175.842 86.5167C174.953 87.065 174.307 87.7544 173.905 88.5875C173.666 89.5697 173.546 91.0842 173.546 93.1258V103.243H168.593V103.24ZM200.589 103.525C199.179 103.525 198.004 103.357 197.064 103.025C196.125 102.692 195.391 102.165 194.862 101.446C194.333 100.728 193.957 99.8812 193.737 98.9016C193.516 97.9221 193.407 96.7164 193.407 95.2791V85.4654H190.004L190.193 82.7797L193.747 82.4576L195.335 76.8228L198.36 76.8042V82.4576H203.521V85.4654H198.36V95.3749C198.36 96.9506 198.586 98.0739 199.041 98.742C199.496 99.41 200.331 99.7454 201.555 99.7454C202.273 99.7454 203.042 99.6815 203.861 99.5564L203.994 103.112C203.97 103.112 203.816 103.142 203.531 103.198C203.247 103.254 202.978 103.304 202.72 103.349C202.462 103.395 202.132 103.435 201.728 103.472C201.323 103.509 200.94 103.525 200.589 103.525Z" fill="#2A3176"/>
<path d="M246.163 130.326C244.216 130.326 242.673 129.674 241.526 128.369C240.382 127.065 239.811 125.298 239.811 123.067C239.811 120.914 240.369 119.152 241.489 117.778C242.609 116.405 244.053 115.7 245.828 115.654C247.482 115.654 248.81 116.245 249.815 117.43C250.818 118.614 251.321 120.201 251.321 122.191C251.321 122.269 251.318 122.426 251.316 122.66C251.313 122.894 251.31 123.062 251.31 123.155H241.5C241.516 124.965 241.955 126.4 242.811 127.459C243.668 128.518 244.801 129.048 246.206 129.048C247.123 129.048 247.921 128.942 248.597 128.726C249.275 128.51 249.98 128.207 250.72 127.813L250.991 129.011C249.563 129.886 247.953 130.326 246.163 130.326ZM241.558 121.872H249.581C249.581 120.302 249.243 119.099 248.565 118.263C247.887 117.427 246.958 117.009 245.775 117.009C244.575 117.009 243.607 117.456 242.87 118.348C242.133 119.24 241.697 120.413 241.558 121.872ZM260.384 130.326C259.022 130.326 257.838 129.99 256.835 129.322C255.833 128.654 255.088 127.781 254.598 126.703C254.109 125.625 253.864 124.427 253.864 123.107C253.864 122.096 254.01 121.143 254.3 120.251C254.593 119.359 255.005 118.569 255.54 117.885C256.075 117.201 256.766 116.655 257.61 116.259C258.453 115.859 259.395 115.66 260.432 115.66C261.11 115.66 261.783 115.75 262.456 115.931C263.129 116.112 263.629 116.325 263.954 116.575L263.451 117.773C262.568 117.275 261.523 117.028 260.315 117.028C258.849 117.028 257.687 117.584 256.83 118.694C255.974 119.804 255.545 121.279 255.545 123.112C255.545 124.872 255.971 126.293 256.825 127.376C257.679 128.46 258.841 129.003 260.315 129.003C261.344 129.003 262.448 128.745 263.632 128.231L263.877 129.375C263.475 129.676 262.951 129.91 262.307 130.075C261.664 130.24 261.028 130.326 260.384 130.326ZM272.589 130.326C271.312 130.326 270.187 130.004 269.213 129.359C268.24 128.715 267.497 127.842 266.989 126.74C266.481 125.638 266.223 124.393 266.223 123.003C266.223 121.957 266.372 120.986 266.667 120.089C266.963 119.192 267.386 118.417 267.934 117.76C268.482 117.102 269.163 116.589 269.979 116.216C270.793 115.843 271.698 115.657 272.693 115.657C274.012 115.657 275.159 115.982 276.127 116.629C277.095 117.275 277.821 118.146 278.305 119.24C278.79 120.334 279.032 121.579 279.032 122.977C279.032 124.385 278.784 125.636 278.287 126.735C277.789 127.834 277.047 128.705 276.063 129.354C275.073 130.001 273.916 130.326 272.589 130.326ZM272.703 129.051C273.733 129.051 274.6 128.779 275.307 128.234C276.015 127.688 276.528 126.969 276.85 126.078C277.172 125.186 277.332 124.161 277.332 123.003C277.332 121.185 276.946 119.721 276.175 118.617C275.403 117.51 274.227 116.956 272.65 116.956C271.621 116.956 270.745 117.233 270.019 117.786C269.293 118.34 268.766 119.064 268.431 119.961C268.096 120.858 267.928 121.885 267.928 123.043C267.928 124.803 268.338 126.243 269.157 127.366C269.979 128.489 271.16 129.051 272.703 129.051ZM286.283 130.339C285.373 130.339 284.522 130.227 283.724 130.004C282.926 129.78 282.296 129.514 281.833 129.205L282.064 127.866C283.479 128.604 284.833 128.973 286.129 128.973C288.451 128.973 289.656 128.111 289.741 126.386C289.741 125.665 289.507 125.101 289.042 124.688C288.574 124.276 287.637 123.847 286.233 123.403C285.496 123.144 285.089 123.003 285.012 122.977C282.809 122.309 281.697 121.119 281.681 119.413C281.681 118.425 282.117 117.552 282.987 116.794C283.857 116.035 285.033 115.654 286.517 115.654C288.002 115.654 289.393 115.947 290.696 116.53L290.156 117.714C288.837 117.217 287.611 116.969 286.477 116.969C285.483 116.969 284.7 117.193 284.131 117.637C283.562 118.082 283.277 118.683 283.277 119.439C283.277 120.073 283.463 120.56 283.836 120.901C284.208 121.239 284.948 121.563 286.054 121.872C286.174 121.907 286.395 121.984 286.717 122.104C287.039 122.223 287.217 122.287 287.252 122.298C288.736 122.753 289.771 123.291 290.356 123.914C290.941 124.536 291.236 125.383 291.236 126.456C291.21 127.691 290.75 128.646 289.853 129.325C288.957 129.998 287.765 130.339 286.283 130.339ZM293.676 136.706C293.317 136.706 292.952 136.671 292.582 136.602L292.465 135.29C292.492 135.29 292.617 135.295 292.846 135.308C293.072 135.322 293.242 135.327 293.354 135.327C294.434 135.327 295.245 135.143 295.785 134.773C296.325 134.403 296.804 133.685 297.224 132.612C297.275 132.466 297.411 132.098 297.629 131.505C297.847 130.911 298.017 130.445 298.137 130.102L292.505 115.91H294.176L298.972 128.596L299.552 126.82C301.909 119.453 303.119 115.771 303.178 115.779C303.186 115.779 303.183 115.822 303.165 115.907H304.835C302.869 121.43 300.906 126.954 298.946 132.479C298.355 133.903 297.661 134.962 296.863 135.657C296.065 136.352 295.006 136.706 293.676 136.706ZM311.036 130.339C310.126 130.339 309.275 130.227 308.477 130.004C307.679 129.78 307.048 129.514 306.585 129.205L306.817 127.866C308.232 128.604 309.586 128.973 310.882 128.973C313.204 128.973 314.409 128.111 314.494 126.386C314.494 125.665 314.26 125.101 313.794 124.688C313.326 124.276 312.39 123.847 310.985 123.403C310.248 123.144 309.841 123.003 309.764 122.977C307.562 122.309 306.45 121.119 306.434 119.413C306.434 118.425 306.87 117.552 307.74 116.794C308.61 116.035 309.786 115.654 311.27 115.654C312.754 115.654 314.146 115.947 315.449 116.53L314.909 117.714C313.59 117.217 312.363 116.969 311.23 116.969C310.235 116.969 309.453 117.193 308.884 117.637C308.315 118.084 308.03 118.683 308.03 119.439C308.03 120.073 308.216 120.56 308.589 120.901C308.961 121.239 309.7 121.563 310.807 121.872C310.927 121.907 311.148 121.984 311.469 122.104C311.791 122.223 311.97 122.287 312.004 122.298C313.489 122.753 314.523 123.291 315.109 123.914C315.694 124.536 315.989 125.383 315.989 126.456C315.962 127.691 315.502 128.646 314.606 129.325C313.709 129.998 312.52 130.339 311.036 130.339ZM323.033 130.312C321.849 130.312 320.985 130.044 320.437 129.509C319.889 128.973 319.615 128.1 319.615 126.889V117.086H317.622L317.739 116.12L319.641 115.939L320.067 112.71L321.187 112.633V115.915H325.302V117.086H321.187V126.557C321.187 127.552 321.349 128.218 321.676 128.558C322.001 128.896 322.576 129.067 323.4 129.067C323.932 129.067 324.592 128.968 325.379 128.771L325.443 130.006C324.4 130.209 323.6 130.312 323.033 130.312ZM333.464 130.326C331.516 130.326 329.973 129.674 328.827 128.369C327.683 127.065 327.111 125.298 327.111 123.067C327.111 120.914 327.67 119.152 328.79 117.778C329.91 116.405 331.354 115.7 333.128 115.654C334.783 115.654 336.11 116.245 337.116 117.43C338.119 118.614 338.622 120.201 338.622 122.191C338.622 122.269 338.619 122.426 338.616 122.66C338.614 122.894 338.611 123.062 338.611 123.155H328.8C328.816 124.965 329.255 126.4 330.112 127.459C330.968 128.518 332.102 129.048 333.506 129.048C334.424 129.048 335.222 128.942 335.898 128.726C336.576 128.51 337.281 128.207 338.02 127.813L338.292 129.011C336.861 129.886 335.254 130.326 333.464 130.326ZM328.859 121.872H336.882C336.882 120.302 336.544 119.099 335.866 118.263C335.187 117.427 334.259 117.009 333.075 117.009C331.875 117.009 330.907 117.456 330.17 118.348C329.433 119.24 328.997 120.413 328.859 121.872ZM341.846 130.017C341.819 121.491 341.806 116.791 341.806 115.915H343.194L343.399 118.076C343.812 117.374 344.426 116.794 345.245 116.338C346.065 115.883 346.932 115.657 347.85 115.657C350.105 115.657 351.518 116.546 352.093 118.321C353.095 116.546 354.678 115.657 356.838 115.657C358.381 115.657 359.514 116.096 360.241 116.975C360.964 117.853 361.326 119.165 361.326 120.906V130.014H359.732V123.118C359.732 122.466 359.724 121.92 359.706 121.483C359.687 121.047 359.647 120.571 359.583 120.054C359.52 119.538 359.421 119.12 359.288 118.792C359.155 118.465 358.982 118.159 358.767 117.866C358.551 117.573 358.277 117.36 357.945 117.222C357.61 117.084 357.216 117.017 356.761 117.017C355.681 117.017 354.766 117.337 354.016 117.975C353.266 118.614 352.744 119.514 352.454 120.672C352.47 121.547 352.494 122.223 352.518 122.705V130.014H350.935V122.836C350.935 122.106 350.914 121.473 350.872 120.938C350.829 120.403 350.744 119.876 350.613 119.362C350.483 118.848 350.31 118.428 350.092 118.1C349.874 117.776 349.581 117.512 349.217 117.315C348.852 117.118 348.416 117.02 347.911 117.02C346.746 117.02 345.769 117.331 344.985 117.951C344.2 118.572 343.692 119.421 343.46 120.493C343.444 120.845 343.434 121.348 343.434 122V130.017H341.846Z" fill="#3EB290"/>
<path d="M48.5011 22.5053C48.1473 22.492 47.8521 22.7795 47.8521 23.1361V26.41C47.8521 26.7454 48.1181 27.0169 48.4532 27.0302C68.8672 27.8554 85.3122 44.31 86.1368 64.7359C86.1422 64.897 86.2098 65.0497 86.3254 65.1619C86.441 65.2741 86.5956 65.337 86.7566 65.3375H90.0286C90.3824 65.3375 90.6697 65.042 90.6564 64.688C89.8078 41.8107 71.3651 23.3571 48.5011 22.5053Z" fill="#2A3176"/>
<path d="M42.3188 22.54C42.6726 22.5267 42.9679 22.8141 42.9679 23.1708V26.4447C42.9679 26.7801 42.7019 27.0516 42.3667 27.0649C21.9528 27.89 5.50776 44.3447 4.68311 64.7706C4.67774 64.9317 4.61014 65.0843 4.49454 65.1965C4.37894 65.3087 4.22435 65.3717 4.0633 65.3721H0.791324C0.437525 65.3721 0.150229 65.0767 0.16353 64.7227C1.00946 41.8453 19.4549 23.3917 42.3188 22.54Z" fill="#3EB290"/>
<path d="M42.3188 112.998C42.6726 113.011 42.9679 112.724 42.9679 112.367V109.093C42.9679 108.758 42.7019 108.487 42.3667 108.473C21.9528 107.648 5.50776 91.1935 4.68311 70.7676C4.67774 70.6065 4.61014 70.4538 4.49454 70.3416C4.37894 70.2294 4.22435 70.1665 4.0633 70.166H0.791324C0.437525 70.166 0.150229 70.4615 0.16353 70.8155C1.00946 93.6928 19.4549 112.146 42.3188 112.998Z" fill="#2A3176"/>
<path d="M42.9678 65.372V41.0999C42.9678 40.6607 42.606 40.2961 42.1671 40.312C28.8983 40.7246 18.2019 51.3262 17.614 64.5575C17.5953 65.0047 17.9598 65.3746 18.4067 65.3746H42.9678V65.372Z" fill="#3EB290"/>
<path d="M17.6222 70.9828C18.2713 84.1503 28.9358 94.6853 42.1567 95.1005C42.6036 95.1138 42.968 94.7465 42.968 94.2994V70.163H18.4149C17.9654 70.163 17.5983 70.5357 17.6222 70.9828ZM73.0995 64.5202C72.4345 51.3581 61.7646 40.839 48.5464 40.4344C48.1128 40.4211 47.7563 40.7778 47.7563 41.2143V65.372H72.2775C72.743 65.372 73.1234 64.986 73.0995 64.5202Z" fill="#2A3176"/>
</g>
<defs>
<clipPath id="clip0_1989_1045">
<rect width="362" height="137" fill="white"/>
</clipPath>
</defs>
</svg>
