<svg width="205" height="120" viewBox="0 0 205 120" fill="none" xmlns="http://www.w3.org/2000/svg">
<g clip-path="url(#clip0_243_484)">
<path d="M59.6246 15.7119C35.4879 15.7119 15.921 35.2883 15.921 59.4368C15.921 83.5852 35.4879 103.162 59.6246 103.162C83.7612 103.162 103.33 83.5873 103.33 59.4389C103.33 35.2905 83.7634 15.7119 59.6246 15.7119ZM46.9156 60.2582C46.9156 63.2327 45.9541 65.522 42.5057 67.822C39.362 69.9189 31.011 70.6971 27.42 63.477L27.3919 63.4337C26.5514 62.0373 26.1258 60.5587 26.1258 59.0412L26.1431 58.8769C26.3202 56.6114 29.8291 56.2223 30.0236 59.1471C30.0236 60.7078 31.1947 62.8717 32.3614 63.8272C36.6503 67.3378 41.7171 64.4087 42.7326 61.3282C43.0783 60.3468 43.0783 57.2599 43.0783 57.2599V43.6714C43.0783 41.9464 44.3293 41.4016 44.7982 41.4016H45.0034C45.4744 41.4016 46.6023 41.5811 46.9026 43.2499L46.9134 43.3839V60.2582H46.9156ZM64.6157 68.1873C63.0384 68.9828 61.5108 69.3806 60.0286 69.3806H59.4215C56.6601 69.3806 54.0868 68.0793 51.7014 65.4787C50.2473 63.4165 49.5192 61.2872 49.5192 59.0887C49.5192 55.7467 50.9949 52.943 53.9442 50.6775C55.8304 49.4237 57.7837 48.7968 59.8061 48.7968C62.4593 48.7968 64.8641 49.802 67.0205 51.8103C69.0688 53.9676 70.0929 56.3931 70.0929 59.0887C70.0908 62.9452 68.265 65.9781 64.6157 68.1873ZM93.0175 59.7718C92.8511 61.3131 92.46 63.0835 91.5785 64.4389C90.0098 66.8492 87.3241 68.7342 84.3554 69.2682V75.7533C84.3554 76.7066 83.5732 77.4784 82.6074 77.4784C81.6416 77.4784 80.8595 76.7066 80.8595 75.7533V69.2293C80.0687 69.065 79.2822 68.8034 78.5108 68.3992C74.4855 66.2958 72.6814 63.2241 72.6814 59.199V50.5738C72.6814 49.6204 73.4635 48.8487 74.4294 48.8487C75.3952 48.8487 76.1773 49.6204 76.1773 50.5738V51.1488L76.1255 59.774C76.1773 60.924 76.8644 62.6642 78.2537 63.9374C80.7385 66.2159 85.5049 66.6741 88.1452 62.7117C89.4502 60.7532 89.5777 57.5215 89.5863 56.5898V50.5738C89.5863 49.6204 90.3685 48.8487 91.3343 48.8487C92.3001 48.8487 93.0823 49.6204 93.0823 50.5738V56.3347C93.0866 56.3887 93.1817 57.5172 93.0823 59.0087L93.0175 59.7718Z" fill="#283273"/>
<path d="M63.0658 -0.21135C62.5948 -0.228644 62.2015 0.153979 62.2015 0.627393V4.98756C62.2015 5.43503 62.5559 5.79603 63.0032 5.81549C90.1863 6.91364 112.087 28.8247 113.184 56.0211C113.202 56.4686 113.565 56.8231 114.012 56.8231H118.37C118.841 56.8231 119.226 56.4297 119.208 55.9584C118.074 25.4935 93.5137 0.921384 63.0658 -0.21135ZM55.5057 -0.178924C25.371 1.29104 1.16524 25.7226 0.0417015 55.9584C0.0244162 56.4297 0.406853 56.8231 0.880036 56.8231H5.23807C5.68533 56.8231 6.04616 56.4686 6.06561 56.0211C7.15457 29.043 28.7114 7.26167 55.59 5.84143C56.0329 5.81765 56.3807 5.45881 56.3807 5.01566V0.657657C56.3807 0.182082 55.981 -0.202703 55.5057 -0.178924Z" fill="#283273"/>
<path d="M117.913 62.7529H113.559C113.116 62.7529 112.755 63.101 112.734 63.5441C111.856 80.1633 103.205 94.7484 90.3622 103.726C75.5444 113.622 57.4424 115.47 41.4169 110.148C21.4978 103.289 7.06249 85.0574 6.09235 63.4404C6.07291 62.9972 5.70992 62.6492 5.26698 62.6492H0.913267C0.437923 62.6492 0.053328 63.0491 0.0770952 63.5225C1.42318 91.1664 22.0682 113.821 48.7869 118.261C54.182 119.269 59.6506 119.506 65.0393 118.975C94.1455 116.696 117.323 92.9736 118.753 63.6263C118.775 63.1529 118.388 62.7529 117.913 62.7529Z" fill="#3EB290"/>
<path d="M139.892 52.4092C141.174 52.4092 142.306 52.5454 143.291 52.8178C144.276 53.0902 145.054 53.4706 145.623 53.957C146.193 54.4434 146.476 55.0076 146.476 55.6496C146.476 56.0539 146.351 56.4279 146.102 56.7716C145.854 57.1153 145.504 57.2882 145.052 57.2882C144.696 57.2882 144.406 57.2299 144.179 57.1088C143.952 56.9899 143.745 56.8472 143.557 56.6808C143.367 56.5143 143.129 56.3479 142.846 56.1814C142.585 56.0388 142.2 55.9199 141.688 55.8247C141.178 55.7296 140.72 55.6821 140.318 55.6821C139.061 55.6821 137.974 55.9674 137.06 56.5381C136.146 57.1088 135.433 57.8805 134.923 58.8533C134.413 59.8282 134.158 60.9307 134.158 62.165C134.158 63.3994 134.413 64.504 134.923 65.4768C135.433 66.4517 136.133 67.2213 137.023 67.792C137.913 68.3626 138.95 68.648 140.139 68.648C140.85 68.648 141.437 68.5939 141.902 68.488C142.364 68.3821 142.751 68.2459 143.058 68.0795C143.438 67.8654 143.747 67.6471 143.985 67.4201C144.222 67.1953 144.566 67.0829 145.018 67.0829C145.538 67.0829 145.938 67.2429 146.21 67.5628C146.482 67.8827 146.619 68.2805 146.619 68.7561C146.619 69.2792 146.303 69.7829 145.677 70.2693C145.048 70.7556 144.209 71.1534 143.166 71.4625C142.122 71.7717 140.971 71.9251 139.713 71.9251C137.861 71.9251 136.254 71.4971 134.891 70.6432C133.525 69.7872 132.471 68.6242 131.723 67.1521C130.975 65.68 130.602 64.0176 130.602 62.165C130.602 60.2908 130.993 58.622 131.777 57.1607C132.559 55.7015 133.65 54.5429 135.053 53.689C136.451 52.8373 138.065 52.4092 139.892 52.4092ZM165.276 52.5519C165.775 52.5519 166.196 52.7249 166.54 53.0686C166.883 53.4123 167.056 53.8468 167.056 54.3678V69.7548C167.056 70.2779 166.883 70.7103 166.54 71.054C166.196 71.3977 165.775 71.5706 165.276 71.5706C164.753 71.5706 164.325 71.3977 163.995 71.054C163.662 70.7103 163.495 70.2757 163.495 69.7548V67.191L164.208 67.2969C164.208 67.7249 164.036 68.2005 163.692 68.7215C163.349 69.2446 162.88 69.7483 162.286 70.2347C161.691 70.7211 160.991 71.1253 160.185 71.4452C159.379 71.7652 158.513 71.9251 157.586 71.9251C155.948 71.9251 154.477 71.5036 153.172 70.6605C151.867 69.8175 150.834 68.661 150.076 67.1888C149.315 65.7167 148.937 64.0436 148.937 62.1672C148.937 60.2433 149.317 58.5528 150.076 57.0915C150.834 55.6302 151.86 54.4866 153.155 53.6544C154.449 52.8243 155.89 52.4071 157.48 52.4071C158.5 52.4071 159.444 52.5735 160.311 52.9043C161.177 53.2372 161.931 53.6652 162.571 54.1862C163.212 54.7093 163.709 55.2605 164.066 55.842C164.422 56.4235 164.6 56.9769 164.6 57.4979L163.495 57.6038V54.3634C163.495 53.8641 163.662 53.4382 163.995 53.0815C164.325 52.7292 164.753 52.5519 165.276 52.5519ZM158.014 68.6501C159.129 68.6501 160.108 68.3648 160.95 67.7941C161.793 67.2234 162.452 66.4474 162.927 65.4616C163.4 64.4759 163.638 63.3777 163.638 62.1672C163.638 60.9329 163.4 59.8282 162.927 58.8555C162.452 57.8827 161.793 57.111 160.95 56.5403C160.108 55.9696 159.129 55.6842 158.014 55.6842C156.923 55.6842 155.948 55.9696 155.095 56.5403C154.241 57.111 153.576 57.8827 153.101 58.8555C152.625 59.8304 152.39 60.9329 152.39 62.1672C152.39 63.3777 152.627 64.4759 153.101 65.4616C153.574 66.4474 154.235 67.2256 155.075 67.7941C155.918 68.3648 156.897 68.6501 158.014 68.6501ZM173.785 71.5706C173.262 71.5706 172.834 71.3977 172.503 71.054C172.17 70.7103 172.006 70.2757 172.006 69.7548V54.6531C172.006 54.1321 172.173 53.6976 172.503 53.3539C172.836 53.0102 173.262 52.8373 173.785 52.8373C174.281 52.8373 174.703 53.0102 175.048 53.3539C175.392 53.6976 175.565 54.1321 175.565 54.6531V58.6436L175.208 57.111C175.399 56.4473 175.688 55.8291 176.081 55.2584C176.472 54.6877 176.941 54.1905 177.488 53.7625C178.035 53.3345 178.644 53.0037 179.322 52.7659C179.999 52.5281 180.705 52.4092 181.44 52.4092C182.055 52.4092 182.591 52.5757 183.041 52.9064C183.492 53.2393 183.717 53.6544 183.717 54.1537C183.717 54.7958 183.551 55.2649 183.218 55.561C182.885 55.8572 182.518 56.0063 182.114 56.0063C181.757 56.0063 181.414 55.9285 181.081 55.775C180.748 55.6215 180.357 55.5437 179.906 55.5437C179.407 55.5437 178.897 55.6734 178.376 55.935C177.853 56.1966 177.38 56.5813 176.952 57.0937C176.524 57.6038 176.187 58.2048 175.939 58.8922C175.69 59.5818 175.565 60.3535 175.565 61.2074V69.7548C175.565 70.2779 175.392 70.7103 175.048 71.054C174.703 71.3998 174.281 71.5706 173.785 71.5706ZM201.303 45.2151C201.802 45.2151 202.223 45.3815 202.567 45.7144C202.91 46.0473 203.083 46.4862 203.083 47.0331V69.7569C203.083 70.2801 202.91 70.7124 202.567 71.0561C202.223 71.3998 201.802 71.5728 201.303 71.5728C200.78 71.5728 200.352 71.3998 200.021 71.0561C199.689 70.7124 199.522 70.2779 199.522 69.7569V67.191L200.235 67.2256C200.235 67.6536 200.062 68.1335 199.719 68.6674C199.375 69.2014 198.906 69.718 198.312 70.2174C197.718 70.7167 197.018 71.1253 196.212 71.4474C195.406 71.7673 194.54 71.9273 193.613 71.9273C191.999 71.9273 190.534 71.5058 189.216 70.6627C187.898 69.8196 186.861 68.6674 186.1 67.2083C185.34 65.7491 184.962 64.0673 184.962 62.1694C184.962 60.2692 185.342 58.5896 186.1 57.1304C186.859 55.6713 187.885 54.5191 189.179 53.676C190.473 52.8329 191.915 52.4114 193.505 52.4114C194.501 52.4114 195.432 52.5779 196.299 52.9086C197.165 53.2415 197.919 53.6695 198.559 54.1905C199.2 54.7136 199.704 55.2649 200.071 55.8464C200.438 56.4279 200.622 56.9813 200.622 57.5022L199.518 57.6082V47.0288C199.518 46.5078 199.684 46.0733 200.017 45.7296C200.354 45.3859 200.782 45.2151 201.303 45.2151ZM194.041 68.6501C195.156 68.6501 196.134 68.3648 196.977 67.7941C197.82 67.2234 198.479 66.4539 198.954 65.4789C199.427 64.5062 199.665 63.4015 199.665 62.1672C199.665 60.9329 199.427 59.8282 198.954 58.8555C198.479 57.8827 197.82 57.111 196.977 56.5403C196.134 55.9696 195.156 55.6842 194.041 55.6842C192.95 55.6842 191.975 55.9696 191.122 56.5403C190.268 57.111 189.603 57.8827 189.127 58.8555C188.652 59.8304 188.416 60.9329 188.416 62.1672C188.416 63.4015 188.654 64.5062 189.127 65.4789C189.603 66.4539 190.266 67.2234 191.122 67.7941C191.977 68.3648 192.95 68.6501 194.041 68.6501Z" fill="#283273"/>
</g>
<defs>
<clipPath id="clip0_243_484">
<rect width="204.156" height="120" fill="white"/>
</clipPath>
</defs>
</svg>
